# xmcd
#
# Track frame offsets: 
#        1615
#        15325
#        33312
#        54390
#        68577
#        86735
#        102025
#        120480
#        134382
#        150340
#        169780
#        187700
#        199212
#        215434
#        244159
#
# Disc length: 3426 seconds
#
# Revision: 0
# Processed by: cddbd v1.5.1PL0 Copyright (c) Steve Scherf et al.
# Submitted via: ExactAudioCopy v0.95a5
#
DISCID=b80d4d0f
DTITLE=Cathy Jean - I Want
DYEAR=1998
DGENRE=Blues Rock
TTITLE0=Be Glad
TTITLE1=I Want
TTITLE2=4 In The Morning
TTITLE3=Unfinished Business
TTITLE4=How Many
TTITLE5=Leave Me Alone
TTITLE6=Why Don't You See Me
TTITLE7=Tallow Shuffle
TTITLE8=Please Stop Seeing That Girl
TTITLE9=I'm Your Girl
TTITLE10=See You Tomorrow
TTITLE11=Blues Singin' Alcoholic
TTITLE12=I Want Your Mother To Know - Rotten B.
TTITLE13=Suffer
TTITLE14=Blues Psalm
EXTD=
EXTT0=
EXTT1=
EXTT2=
EXTT3=
EXTT4=
EXTT5=
EXTT6=
EXTT7=
EXTT8=
EXTT9=
EXTT10=
EXTT11=
EXTT12=
EXTT13=
EXTT14=
PLAYORDER=
